<svg xmlns="http://www.w3.org/2000/svg" width="320" height="160">
    <rect width="320" height="160" fill="#FFFFFF"/>
    <text x="160" y="5" font-size="5.333333333333333" style="text-anchor: middle;"/>
    <g transform="translate(17, 5)">
        <g fill="none" font-size="10" font-family="sans-serif" text-anchor="left" transform="translate(0, 0)">
            <path class="domain" stroke="currentColor" d="M-6,145H0V0H-6"/>
            <g class="tick" opacity="1" transform="translate(0,145)">
                <line stroke="currentColor" x2="-6"/>
            </g>
            <g class="tick" opacity="1" transform="translate(0,126.875)">
                <line stroke="currentColor" x2="-6"/>
            </g>
            <g class="tick" opacity="1" transform="translate(0,108.75)">
                <line stroke="currentColor" x2="-6"/>
            </g>
            <g class="tick" opacity="1" transform="translate(0,90.625)">
                <line stroke="currentColor" x2="-6"/>
            </g>
            <g class="tick" opacity="1" transform="translate(0,72.5)">
                <line stroke="currentColor" x2="-6"/>
            </g>
            <g class="tick" opacity="1" transform="translate(0,54.375)">
                <line stroke="currentColor" x2="-6"/>
            </g>
            <g class="tick" opacity="1" transform="translate(0,36.25)">
                <line stroke="currentColor" x2="-6"/>
            </g>
            <g class="tick" opacity="1" transform="translate(0,18.125)">
                <line stroke="currentColor" x2="-6"/>
            </g>
            <g class="tick" opacity="1" transform="translate(0,0)">
                <line stroke="currentColor" x2="-6"/>
            </g>
        </g>
        <g fill="none" font-size="10" font-family="sans-serif" text-anchor="middle" transform="translate(0, 145)">
            <path class="domain" stroke="currentColor" d="M0,6V0H295V6"/>
            <g class="tick" opacity="1" transform="translate(0,0)">
                <line stroke="currentColor" y2="6"/>
            </g>
            <g class="tick" opacity="1" transform="translate(22.692307692307693,0)">
                <line stroke="currentColor" y2="6"/>
            </g>
            <g class="tick" opacity="1" transform="translate(45.38461538461539,0)">
                <line stroke="currentColor" y2="6"/>
            </g>
            <g class="tick" opacity="1" transform="translate(68.07692307692308,0)">
                <line stroke="currentColor" y2="6"/>
            </g>
            <g class="tick" opacity="1" transform="translate(90.76923076923077,0)">
                <line stroke="currentColor" y2="6"/>
            </g>
            <g class="tick" opacity="1" transform="translate(113.46153846153847,0)">
                <line stroke="currentColor" y2="6"/>
            </g>
            <g class="tick" opacity="1" transform="translate(136.15384615384616,0)">
                <line stroke="currentColor" y2="6"/>
            </g>
            <g class="tick" opacity="1" transform="translate(158.84615384615384,0)">
                <line stroke="currentColor" y2="6"/>
            </g>
            <g class="tick" opacity="1" transform="translate(181.53846153846155,0)">
                <line stroke="currentColor" y2="6"/>
            </g>
            <g class="tick" opacity="1" transform="translate(204.23076923076923,0)">
                <line stroke="currentColor" y2="6"/>
            </g>
            <g class="tick" opacity="1" transform="translate(226.92307692307693,0)">
                <line stroke="currentColor" y2="6"/>
            </g>
            <g class="tick" opacity="1" transform="translate(249.6153846153846,0)">
                <line stroke="currentColor" y2="6"/>
            </g>
            <g class="tick" opacity="1" transform="translate(272.3076923076923,0)">
                <line stroke="currentColor" y2="6"/>
            </g>
            <g class="tick" opacity="1" transform="translate(295,0)">
                <line stroke="currentColor" y2="6"/>
            </g>
        </g>
        <circle cx="273.8736808911053" cy="74.40196630577006" r="3" fill="#ff7f0e"/>
        <circle cx="149.96546936590826" cy="60.94777214115873" r="3" fill="#0365a8"/>
        <circle cx="24.97738129026033" cy="46.194956555991226" r="3" fill="#ff7f0e"/>
        <circle cx="8.358495939070886" cy="42.19106925852386" r="3" fill="#0365a8"/>
        <circle cx="134.62893805667133" cy="96.28347051010246" r="3" fill="#0365a8"/>
        <circle cx="160.53485552955283" cy="72.53436919187398" r="3" fill="#ff7f0e"/>
        <circle cx="138.08729635025702" cy="84.28367478526316" r="3" fill="#ff7f0e"/>
        <circle cx="275.4827180004194" cy="95.13788397210972" r="3" fill="#0365a8"/>
        <circle cx="5.397027263144434" cy="66.99220908391978" r="3" fill="#0365a8"/>
        <circle cx="20.78679435237005" cy="85.21126372495291" r="3" fill="#0365a8"/>
        <circle cx="132.92286353401437" cy="107.52659645139859" r="3" fill="#0365a8"/>
        <circle cx="7.776077569522142" cy="66.53164059390448" r="3" fill="#0365a8"/>
        <circle cx="10.633653421441295" cy="47.93041385278086" r="3" fill="#0365a8"/>
        <circle cx="12.325662674901132" cy="97.82388130334378" r="3" fill="#0365a8"/>
        <circle cx="142.1441588107749" cy="68.9361513582352" r="3" fill="#0365a8"/>
        <circle cx="249.87903670518423" cy="128.30573101731792" r="3" fill="#0365a8"/>
        <circle cx="46.46349637517749" cy="88.31492300761872" r="3" fill="#0365a8"/>
        <circle cx="11.079477832941599" cy="55.79927728482929" r="3" fill="#ff7f0e"/>
        <circle cx="13.896727927289591" cy="78.3052414802071" r="3" fill="#ff7f0e"/>
        <circle cx="4.808443182475566" cy="78.21256382058364" r="3" fill="#0365a8"/>
        <circle cx="275.62231672183657" cy="78.08294954015865" r="3" fill="#0365a8"/>
        <circle cx="267.0533958941074" cy="115.27848499590678" r="3" fill="#0365a8"/>
        <circle cx="60.90498453020562" cy="65.33374864073825" r="3" fill="#ff7f0e"/>
        <circle cx="14.012527085832094" cy="42.484815971664254" r="3" fill="#0365a8"/>
        <circle cx="212.025454600032" cy="94.86702249429159" r="3" fill="#0365a8"/>
        <circle cx="137.38751410320017" cy="79.24470518723969" r="3" fill="#0365a8"/>
        <circle cx="276.7138483998731" cy="83.12487497155008" r="3" fill="#ff7f0e"/>
        <circle cx="59.33132672637574" cy="1.20494824704806" r="3" fill="#ff7f0e"/>
        <circle cx="261.06622646099197" cy="117.61009030023436" r="3" fill="#ff7f0e"/>
        <circle cx="248.19335565078185" cy="46.60246870802698" r="3" fill="#0365a8"/>
        <circle cx="4.750652433892311" cy="86.31530620996608" r="3" fill="#0365a8"/>
        <circle cx="149.69369758970214" cy="52.73109872274037" r="3" fill="#ff7f0e"/>
        <circle cx="64.21748797654703" cy="52.76996737882524" r="3" fill="#ff7f0e"/>
        <circle cx="11.515429357142752" cy="106.54902815180424" r="3" fill="#0365a8"/>
        <circle cx="40.902413471952826" cy="12.767461103308188" r="3" fill="#ff7f0e"/>
        <circle cx="209.02395537808238" cy="112.58546733347333" r="3" fill="#0365a8"/>
        <circle cx="274.9674038556771" cy="99.3905578200699" r="3" fill="#ff7f0e"/>
        <circle cx="1.777337758241187" cy="86.93791976441653" r="3" fill="#0365a8"/>
        <circle cx="45.41039876707984" cy="87.77734334012138" r="3" fill="#ff7f0e"/>
        <circle cx="264.8908967073647" cy="67.30330932577739" r="3" fill="#ff7f0e"/>
        <circle cx="205.68584012277796" cy="121.26238313823794" r="3" fill="#0365a8"/>
        <circle cx="212.38031576969206" cy="111.27205520785108" r="3" fill="#0365a8"/>
        <circle cx="274.94239862987826" cy="77.5585101268849" r="3" fill="#0365a8"/>
        <circle cx="261.81637913514334" cy="69.68998679490565" r="3" fill="#ff7f0e"/>
        <circle cx="204.93166455944137" cy="108.5703340733092" r="3" fill="#0365a8"/>
        <circle cx="9.705922793431842" cy="37.26337732811196" r="3" fill="#ff7f0e"/>
        <circle cx="249.20747405288134" cy="46.61169708446175" r="3" fill="#0365a8"/>
        <circle cx="268.3100259658669" cy="82.29951593688232" r="3" fill="#ff7f0e"/>
        <circle cx="23.700103788459863" cy="18.67325067552772" r="3" fill="#0365a8"/>
        <circle cx="141.90979009334902" cy="63.83990979182998" r="3" fill="#ff7f0e"/>
        <circle cx="134.04023199612058" cy="112.46225364392177" r="3" fill="#0365a8"/>
        <circle cx="255.34829679922663" cy="51.008670328621626" r="3" fill="#ff7f0e"/>
        <circle cx="143.49100063419672" cy="75.36284897398632" r="3" fill="#0365a8"/>
        <circle cx="215.11270216337246" cy="115.57216409425979" r="3" fill="#ff7f0e"/>
        <circle cx="5.453510488764989" cy="55.17055670318107" r="3" fill="#0365a8"/>
        <circle cx="226.99842082211802" cy="108.72213028680777" r="3" fill="#ff7f0e"/>
        <circle cx="134.11771928331163" cy="111.83091424670219" r="3" fill="#0365a8"/>
        <circle cx="215.53308510949887" cy="110.34642622211203" r="3" fill="#0365a8"/>
        <circle cx="276.4617110819865" cy="91.60428501254137" r="3" fill="#0365a8"/>
        <circle cx="17.811617974408986" cy="35.36876667362979" r="3" fill="#0365a8"/>
        <circle cx="208.36818647150338" cy="120.06730457046625" r="3" fill="#0365a8"/>
        <circle cx="276.18629778508074" cy="96.2798942676243" r="3" fill="#ff7f0e"/>
        <circle cx="10.786852296393782" cy="84.43833776547896" r="3" fill="#0365a8"/>
        <circle cx="59.310711533399584" cy="68.36860385214501" r="3" fill="#0365a8"/>
        <circle cx="264.84875314773126" cy="62.70206658047842" r="3" fill="#0365a8"/>
        <circle cx="196.08605552229565" cy="126.49919665560259" r="3" fill="#ff7f0e"/>
        <circle cx="27.408446848107463" cy="41.05354540316835" r="3" fill="#0365a8"/>
        <circle cx="257.0519726554794" cy="58.53587390555052" r="3" fill="#ff7f0e"/>
        <circle cx="5.461173033894366" cy="69.97664443200806" r="3" fill="#0365a8"/>
        <circle cx="67.37922276068774" cy="31.63375891249114" r="3" fill="#0365a8"/>
        <circle cx="21.087477633986808" cy="91.8864426638924" r="3" fill="#0365a8"/>
        <circle cx="7.402419937379039" cy="73.42689327144622" r="3" fill="#0365a8"/>
        <circle cx="59.16924281627122" cy="1.546903868843212" r="3" fill="#0365a8"/>
        <circle cx="215.0121348689453" cy="93.30594242633636" r="3" fill="#ff7f0e"/>
        <circle cx="269.6625844832433" cy="109.36821484782966" r="3" fill="#0365a8"/>
        <circle cx="146.8341610143131" cy="69.9864403439895" r="3" fill="#ff7f0e"/>
        <circle cx="140.03696735907164" cy="81.65359578964356" r="3" fill="#0365a8"/>
        <circle cx="250.69829063665037" cy="42.73395446239168" r="3" fill="#0365a8"/>
        <circle cx="34.8685421577594" cy="17.87019304970827" r="3" fill="#0365a8"/>
        <circle cx="271.87288975258883" cy="70.52911357297688" r="3" fill="#0365a8"/>
        <circle cx="261.10704348039906" cy="116.87082995283758" r="3" fill="#ff7f0e"/>
        <circle cx="34.97387392511166" cy="13.579817947498617" r="3" fill="#ff7f0e"/>
        <circle cx="266.30457984495985" cy="73.09255332194545" r="3" fill="#0365a8"/>
        <circle cx="219.58594613335288" cy="81.12324539361234" r="3" fill="#0365a8"/>
        <circle cx="23.371121793013632" cy="24.038137518427572" r="3" fill="#0365a8"/>
        <circle cx="68.46638659737903" cy="33.07854340826079" r="3" fill="#0365a8"/>
        <circle cx="65.55189868973761" cy="54.00015477151045" r="3" fill="#0365a8"/>
        <circle cx="28.45632119602194" cy="38.40052734305389" r="3" fill="#0365a8"/>
        <circle cx="17.221790455022134" cy="35.55130853358268" r="3" fill="#0365a8"/>
        <circle cx="11.182093202774496" cy="52.64723801862309" r="3" fill="#ff7f0e"/>
        <circle cx="5.901167185407984" cy="89.59759009667894" r="3" fill="#0365a8"/>
        <circle cx="18.86993872490133" cy="26.837256352094105" r="3" fill="#0365a8"/>
        <circle cx="66.67120705973099" cy="49.05951980828462" r="3" fill="#ff7f0e"/>
        <circle cx="12.507533350466135" cy="109.06851058422073" r="3" fill="#0365a8"/>
        <circle cx="163.2633303323012" cy="40.13693011548889" r="3" fill="#0365a8"/>
        <circle cx="2.265396760589349" cy="50.284391595123836" r="3" fill="#0365a8"/>
        <circle cx="203.022653447339" cy="112.76073979452106" r="3" fill="#ff7f0e"/>
        <circle cx="9.579775646099526" cy="87.42475868825791" r="3" fill="#0365a8"/>
        <circle cx="202.63997174196203" cy="117.39463622322143" r="3" fill="#ff7f0e"/>
        <circle cx="14.293018826121966" cy="30.93518596774428" r="3" fill="#ff7f0e"/>
        <circle cx="135.65797718336685" cy="73.90699256568463" r="3" fill="#ff7f0e"/>
        <circle cx="132.82859135397652" cy="96.09265821165418" r="3" fill="#0365a8"/>
        <circle cx="271.0363348290813" cy="87.85055655847216" r="3" fill="#0365a8"/>
        <circle cx="62.38872083608008" cy="59.606231398240794" r="3" fill="#0365a8"/>
        <circle cx="14.073044500378977" cy="39.83057853670894" r="3" fill="#0365a8"/>
        <circle cx="223.2323287374883" cy="75.52556188826706" r="3" fill="#0365a8"/>
        <circle cx="266.0862450303154" cy="62.89807392403541" r="3" fill="#0365a8"/>
        <circle cx="266.9379002156966" cy="115.70144321344692" r="3" fill="#0365a8"/>
        <circle cx="134.93578735651886" cy="98.23276745487897" r="3" fill="#0365a8"/>
        <circle cx="149.28693433686837" cy="66.57760874862649" r="3" fill="#0365a8"/>
        <circle cx="139.70280058693126" cy="72.43925538149978" r="3" fill="#ff7f0e"/>
        <circle cx="159.6309786239082" cy="45.59705464601828" r="3" fill="#0365a8"/>
        <circle cx="132.95263232403565" cy="115.46460024526698" r="3" fill="#0365a8"/>
        <circle cx="159.82533017668533" cy="45.274842208986705" r="3" fill="#0365a8"/>
        <circle cx="12.076947271704226" cy="92.7823730806226" r="3" fill="#ff7f0e"/>
        <circle cx="139.72657320267393" cy="64.52914869997306" r="3" fill="#0365a8"/>
        <circle cx="188.73066580708016" cy="129.18476110569955" r="3" fill="#0365a8"/>
        <circle cx="165.99297789951422" cy="39.236173888485055" r="3" fill="#0365a8"/>
        <circle cx="266.9894331937218" cy="95.19120895866537" r="3" fill="#ff7f0e"/>
        <circle cx="148.86526690819596" cy="76.7428491340657" r="3" fill="#0365a8"/>
        <circle cx="133.12671647465746" cy="115.16481890402667" r="3" fill="#0365a8"/>
        <circle cx="53.08328299274306" cy="76.37155635709775" r="3" fill="#0365a8"/>
        <circle cx="234.3313056993177" cy="47.0181386341575" r="3" fill="#0365a8"/>
        <circle cx="156.37209125557732" cy="44.678425748673234" r="3" fill="#ff7f0e"/>
        <circle cx="267.19272646978663" cy="78.32916191981671" r="3" fill="#ff7f0e"/>
        <circle cx="166.7009598065258" cy="40.4589212957464" r="3" fill="#0365a8"/>
        <circle cx="215.69354038772084" cy="113.75276044258909" r="3" fill="#0365a8"/>
        <circle cx="165.95528976079422" cy="40.84136995358617" r="3" fill="#ff7f0e"/>
        <circle cx="59.0834936773774" cy="1.4616592766888026" r="3" fill="#0365a8"/>
        <circle cx="22.244193670763142" cy="20.72518672304012" r="3" fill="#0365a8"/>
        <circle cx="257.85559338237044" cy="57.94521885342723" r="3" fill="#ff7f0e"/>
        <circle cx="58.92422099372109" cy="2.734273202446346" r="3" fill="#ff7f0e"/>
        <circle cx="20.620153416365195" cy="43.84250769087906" r="3" fill="#ff7f0e"/>
        <circle cx="215.23406397614917" cy="94.84480258479937" r="3" fill="#0365a8"/>
        <circle cx="33.88569212907148" cy="18.48227507559019" r="3" fill="#0365a8"/>
        <circle cx="145.850096946667" cy="58.39671590643399" r="3" fill="#0365a8"/>
        <circle cx="65.01042632630984" cy="49.96558326903371" r="3" fill="#ff7f0e"/>
        <circle cx="213.92533876335838" cy="101.11570576861618" r="3" fill="#0365a8"/>
        <circle cx="2.0002393264479594" cy="92.26244308768662" r="3" fill="#0365a8"/>
        <circle cx="228.91240927385297" cy="48.78529015447973" r="3" fill="#0365a8"/>
        <circle cx="133.82095911794408" cy="93.30672727846228" r="3" fill="#ff7f0e"/>
        <circle cx="5.204770633907305" cy="54.44083821531348" r="3" fill="#0365a8"/>
        <circle cx="58.98489585823845" cy="1.4040309084316227" r="3" fill="#0365a8"/>
        <circle cx="249.98093103145226" cy="48.184590948146464" r="3" fill="#ff7f0e"/>
        <circle cx="61.18363951919209" cy="12.084341658514566" r="3" fill="#0365a8"/>
        <circle cx="230.17447659343685" cy="69.74703231783127" r="3" fill="#ff7f0e"/>
        <circle cx="11.290043507944576" cy="50.790128781957286" r="3" fill="#0365a8"/>
        <circle cx="213.96680271750068" cy="117.27721297351978" r="3" fill="#ff7f0e"/>
        <circle cx="147.89601562699377" cy="64.81652890126813" r="3" fill="#0365a8"/>
        <circle cx="7.031242101294424" cy="101.82464057897171" r="3" fill="#0365a8"/>
        <circle cx="275.26069093499837" cy="86.54400677402135" r="3" fill="#0365a8"/>
        <circle cx="265.146207209418" cy="119.13970074095926" r="3" fill="#ff7f0e"/>
        <circle cx="147.66480191470805" cy="69.31716074777874" r="3" fill="#0365a8"/>
        <circle cx="205.2970340444743" cy="107.94506899329689" r="3" fill="#ff7f0e"/>
        <circle cx="261.2508672597341" cy="119.92645090654501" r="3" fill="#0365a8"/>
        <circle cx="214.59489658839144" cy="105.7312744825121" r="3" fill="#0365a8"/>
        <circle cx="6.294438629405335" cy="97.09663860817648" r="3" fill="#ff7f0e"/>
        <circle cx="12.351342066942545" cy="95.7307558996213" r="3" fill="#ff7f0e"/>
        <circle cx="64.16969175315917" cy="52.958825175284176" r="3" fill="#0365a8"/>
        <circle cx="142.03475048818441" cy="78.99887768016929" r="3" fill="#0365a8"/>
        <circle cx="249.34279434585167" cy="40.808633088011796" r="3" fill="#0365a8"/>
        <circle cx="270.6294634702203" cy="84.06506044775273" r="3" fill="#0365a8"/>
        <circle cx="28.989521001445524" cy="22.096014073733727" r="3" fill="#0365a8"/>
        <circle cx="209.26836871786233" cy="96.79925808449902" r="3" fill="#0365a8"/>
        <circle cx="3.902208130632246" cy="48.58593238754574" r="3" fill="#0365a8"/>
        <circle cx="188.2057379339547" cy="128.58738260807044" r="3" fill="#0365a8"/>
        <circle cx="133.11157167562592" cy="115.17697227577314" r="3" fill="#0365a8"/>
        <circle cx="214.70260926697094" cy="86.05493945385011" r="3" fill="#0365a8"/>
        <circle cx="44.4147790661118" cy="90.75106021018996" r="3" fill="#0365a8"/>
        <circle cx="54.03463048943922" cy="76.43888502049248" r="3" fill="#0365a8"/>
        <circle cx="244.51894244000832" cy="36.55824601501418" r="3" fill="#0365a8"/>
        <circle cx="230.15382483724883" cy="59.16243705343981" r="3" fill="#0365a8"/>
        <circle cx="155.5541466377796" cy="48.3001415170008" r="3" fill="#ff7f0e"/>
        <circle cx="5.094456259314035" cy="44.838247987746364" r="3" fill="#0365a8"/>
        <circle cx="264.4499742438464" cy="110.20503602155719" r="3" fill="#0365a8"/>
        <circle cx="210.69187419564446" cy="120.05625223349307" r="3" fill="#ff7f0e"/>
        <circle cx="31.349970411908593" cy="11.489712654058382" r="3" fill="#ff7f0e"/>
        <circle cx="256.4425956120276" cy="122.88382711686565" r="3" fill="#ff7f0e"/>
        <circle cx="3.8178819450592294" cy="95.2652784407065" r="3" fill="#0365a8"/>
        <circle cx="244.53920278485626" cy="35.230858327636874" r="3" fill="#0365a8"/>
        <circle cx="273.01488800578176" cy="99.52574519224417" r="3" fill="#ff7f0e"/>
        <circle cx="207.61858921531484" cy="114.86353635091156" r="3" fill="#0365a8"/>
        <circle cx="238.59208965816217" cy="39.62006075609406" r="3" fill="#0365a8"/>
        <circle cx="122.62282801773063" cy="120.82690611727132" r="3" fill="#ff7f0e"/>
        <circle cx="7.878261974571921" cy="81.06045814426558" r="3" fill="#0365a8"/>
        <circle cx="150.79663466511772" cy="58.11006470033386" r="3" fill="#0365a8"/>
        <circle cx="30.553442227318897" cy="17.452208904912922" r="3" fill="#0365a8"/>
        <circle cx="126.53434337991361" cy="119.64432422660805" r="3" fill="#ff7f0e"/>
        <circle cx="218.9447348331046" cy="82.27116516206097" r="3" fill="#0365a8"/>
        <circle cx="12.015526940050776" cy="93.05890457614018" r="3" fill="#0365a8"/>
        <circle cx="132.3415813701124" cy="74.4433046210467" r="3" fill="#0365a8"/>
        <circle cx="269.1900475745739" cy="97.03693528498731" r="3" fill="#0365a8"/>
        <circle cx="271.6723316503875" cy="103.44834546972702" r="3" fill="#ff7f0e"/>
        <circle cx="29.08690754326674" cy="12.88663858320467" r="3" fill="#0365a8"/>
        <circle cx="232.45351546657" cy="50.449394029284804" r="3" fill="#ff7f0e"/>
        <circle cx="66.45133269496905" cy="44.32183187886386" r="3" fill="#0365a8"/>
        <circle cx="269.12945495688507" cy="69.3638333292221" r="3" fill="#0365a8"/>
        <circle cx="31.854198522901843" cy="81.83511294832655" r="3" fill="#ff7f0e"/>
        <circle cx="212.86894539596736" cy="105.45442404977764" r="3" fill="#ff7f0e"/>
        <circle cx="18.168699596801126" cy="30.804787060311547" r="3" fill="#0365a8"/>
    </g>
</svg>